# xmcd CD database file
#
# Track frame offsets:
#	150
#	9709
#	20101
#	32407
#	51904
#	64257
#	81534
#	90429
#	98878
#	122657
#	132638
#	142123
#	149752
#	166556
#	177467
#	185746
#
# Disc length: 2675 seconds
#
# Revision: 0
# Processed by: cddbd v1.5.2PL0 Copyright (c) Steve Scherf et al.
# Submitted via: CDex 1.70beta2
#
DISCID=ee0a7110
DTITLE=Role zenekar - Ady (Hangzó Helikon)
DYEAR=2011
DGENRE=Megzenésített versek
TTITLE0=Hajh, Élet, hajh 
TTITLE1=Az örök gyermekség
TTITLE2=Adjon Isten mindenkinek
TTITLE3=A Nincsen himnusza
TTITLE4=Szelíd, esti imádság
TTITLE5=Egyedül a tengerrel
TTITLE6=Áldásadás a vonaton
TTITLE7=Sem utódja, sem boldo őse...
TTITLE8=Fölszállott a páva
TTITLE9=Fajtáddal együtt átkozlak
TTITLE10=Kis, karácsonyi ének
TTITLE11=A legjobb ember
TTITLE12=Sötét vizek partján
TTITLE13=Az ágyam hívogat
TTITLE14=Az én testamentumom
TTITLE15=A magyar Messiások
EXTD=YEAR: 2011
EXTT0=
EXTT1=
EXTT2=
EXTT3=
EXTT4=
EXTT5=
EXTT6=
EXTT7=
EXTT8=
EXTT9=
EXTT10=
EXTT11=
EXTT12=
EXTT13=
EXTT14=
EXTT15=
PLAYORDER=
